<?xml version="1.0" standalone="no"?>
<!DOCTYPE svg PUBLIC "-//W3C//DTD SVG 20010904//EN"
 "http://www.w3.org/TR/2001/REC-SVG-20010904/DTD/svg10.dtd">
<svg version="1.0" xmlns="http://www.w3.org/2000/svg"
 width="800.000000pt" height="800.000000pt" viewBox="0 0 800.000000 800.000000"
 preserveAspectRatio="xMidYMid meet">
<metadata>
Created by potrace 1.11, written by Peter Selinger 2001-2013
</metadata>
<g transform="translate(0.000000,800.000000) scale(0.100000,-0.100000)"
fill="#000000" stroke="none">
<path d="M3500 7053 c-14 -2 -81 -15 -150 -29 -588 -119 -1084 -328 -1475
-623 -183 -138 -456 -415 -610 -621 -137 -181 -261 -429 -329 -654 -76 -249
-101 -457 -93 -765 19 -747 282 -1381 740 -1782 300 -263 665 -429 1087 -496
159 -25 554 -25 725 0 517 76 971 253 1290 502 85 66 282 271 353 367 82 111
94 15 -146 1144 -167 785 -217 1004 -234 1030 -30 43 -86 74 -135 74 -37 0
-1647 -388 -1705 -411 -37 -15 -78 -57 -95 -96 -7 -18 -18 -33 -24 -33 -24 0
-72 -45 -90 -84 -10 -23 -19 -58 -19 -79 0 -63 88 -613 105 -654 21 -50 51
-82 100 -104 56 -26 92 -24 281 16 91 19 176 35 189 35 33 0 45 -21 65 -106
l18 -75 -23 -9 c-13 -5 -69 -14 -124 -20 -226 -25 -403 37 -520 182 -128 158
-212 438 -213 708 -1 279 82 486 247 617 241 191 569 314 998 373 77 11 157
24 178 30 49 14 105 61 120 104 7 20 25 40 48 52 19 10 46 34 58 53 44 66 40
85 -168 708 -178 534 -193 574 -224 602 -51 45 -128 60 -225 44z m234 -719
c108 -326 161 -496 153 -499 -7 -1 -66 -10 -132 -19 -360 -48 -717 -175 -967
-342 -115 -78 -257 -209 -328 -302 -102 -135 -184 -329 -210 -497 -18 -112
-14 -324 9 -455 84 -483 292 -761 636 -850 148 -39 395 -26 590 31 117 35 265
101 265 119 0 9 -31 164 -70 345 -38 182 -70 333 -70 336 0 4 -131 -20 -291
-53 -160 -32 -293 -58 -294 -56 -5 6 -77 490 -73 494 6 6 1519 376 1522 372 1
-2 90 -417 198 -923 223 -1051 210 -927 103 -1039 -230 -240 -700 -454 -1175
-535 -556 -95 -1062 -19 -1465 220 -152 90 -228 150 -365 288 -280 282 -453
641 -535 1105 -35 203 -45 313 -45 500 0 579 190 1040 594 1441 332 329 750
559 1294 710 123 34 436 103 474 104 13 1 51 -102 182 -495z"/>
<path d="M5480 3337 c-9 -7 -30 -32 -47 -57 -27 -39 -35 -65 -57 -200 -47
-282 -114 -668 -211 -1210 -52 -294 -95 -548 -95 -563 0 -35 15 -63 39 -76 21
-11 504 -81 561 -81 31 0 44 7 78 44 22 24 42 56 46 72 3 16 24 130 47 254 23
124 45 229 50 234 7 8 125 -8 262 -36 44 -9 47 -12 47 -41 0 -17 -20 -144 -45
-284 -25 -139 -45 -263 -45 -277 0 -37 35 -73 78 -81 199 -33 528 -72 549 -64
28 11 87 67 96 92 4 9 59 297 122 640 64 342 133 710 155 817 57 291 84 462
76 493 -7 29 -40 50 -96 61 -299 58 -526 96 -543 90 -12 -4 -43 -24 -68 -45
-40 -33 -45 -42 -41 -71 3 -26 -112 -716 -121 -724 -1 -1 -72 10 -157 25 -152
27 -155 28 -152 52 2 13 33 179 69 369 35 190 67 361 70 381 11 71 -24 98
-157 119 -41 6 -160 27 -264 46 -209 38 -224 39 -246 21z m323 -148 c122 -22
223 -42 226 -44 2 -3 -31 -194 -74 -425 -43 -231 -75 -423 -71 -427 7 -7 547
-105 552 -100 2 1 36 193 78 426 41 232 76 425 79 427 2 3 112 -15 243 -39
236 -43 239 -44 236 -68 -3 -30 -334 -1813 -337 -1817 -4 -4 -460 60 -467 67
-3 3 20 152 51 329 38 215 54 325 47 328 -28 9 -532 94 -545 92 -11 -2 -29
-79 -72 -311 -31 -169 -60 -311 -63 -315 -8 -7 -453 52 -463 62 -5 5 245 1460
314 1829 4 19 12 27 25 27 11 0 120 -18 241 -41z"/>
</g>
</svg>
